<svg width="400" height="400" version="1.1" viewBox="0 0 100 100" xmlns="http://www.w3.org/2000/svg">
 <path transform="rotate(90)" d="m13.8-29.8c0 1.68 1.35 3.04 3.04 3.04h4.35c1.68 0 3.04-1.35 3.04-3.04v-46.5h35.3v7.63l13-12.7-13-12.7v7.63h-38.4-4.35c-1.26 0-2.34 0.762-2.8 1.85v4.88e-4c-0.153 0.364-0.238 0.763-0.238 1.18v53.6zm13.7 11.1 13 12.7v-7.63h38.4 4.35c1.16 0 2.16-0.64 2.67-1.59 0.0466-0.0861 0.0896-0.174 0.128-0.265 0.153-0.364 0.238-0.764 0.238-1.18v-53.6c0-1.68-1.35-3.04-3.04-3.04h-4.35c-1.68 0-3.04 1.35-3.04 3.04v46.5h-35.3v-7.63l-13 12.7z" fill="#fff" stroke-linecap="round" stroke-linejoin="round" stroke-width="10"/>
</svg>
